<svg width="30" height="30" viewBox="0 0 30 30" fill="none" xmlns="http://www.w3.org/2000/svg">
<path d="M13.0001 3C12.8676 2.9982 12.7361 3.02274 12.6132 3.07219C12.4903 3.12164 12.3785 3.19501 12.2842 3.28805C12.1898 3.38108 12.115 3.49193 12.0638 3.61415C12.0127 3.73637 11.9864 3.86752 11.9864 4H6.00008C5.86757 3.99813 5.73601 4.02261 5.61304 4.07202C5.49007 4.12144 5.37815 4.1948 5.28378 4.28784C5.18941 4.38089 5.11447 4.49176 5.06333 4.61401C5.01218 4.73627 4.98584 4.86748 4.98584 5C4.98584 5.13253 5.01218 5.26373 5.06333 5.38599C5.11447 5.50824 5.18941 5.61912 5.28378 5.71216C5.37815 5.80521 5.49007 5.87857 5.61304 5.92798C5.73601 5.97739 5.86757 6.00187 6.00008 6H24.0001C24.1326 6.00187 24.2642 5.97739 24.3871 5.92798C24.5101 5.87857 24.622 5.80521 24.7164 5.71216C24.8108 5.61912 24.8857 5.50824 24.9368 5.38599C24.988 5.26373 25.0143 5.13253 25.0143 5C25.0143 4.86748 24.988 4.73627 24.9368 4.61401C24.8857 4.49176 24.8108 4.38089 24.7164 4.28784C24.622 4.1948 24.5101 4.12144 24.3871 4.07202C24.2642 4.02261 24.1326 3.99813 24.0001 4H18.0138C18.0138 3.86752 17.9874 3.73637 17.9363 3.61415C17.8852 3.49193 17.8103 3.38108 17.716 3.28805C17.6217 3.19501 17.5099 3.12164 17.3869 3.07219C17.264 3.02274 17.1325 2.9982 17.0001 3H13.0001ZM6.00008 8V24C6.00008 25.105 6.89508 26 8.00008 26H22.0001C23.1051 26 24.0001 25.105 24.0001 24V8H6.00008Z" fill="black"/>
</svg>
